<?xml version="1.0" encoding="UTF-8" standalone="no"?>
<!-- Created with Inkscape (http://www.inkscape.org/) -->

<svg
   xmlns:dc="http://purl.org/dc/elements/1.1/"
   xmlns:cc="http://creativecommons.org/ns#"
   xmlns:rdf="http://www.w3.org/1999/02/22-rdf-syntax-ns#"
   xmlns:svg="http://www.w3.org/2000/svg"
   xmlns="http://www.w3.org/2000/svg"
   xmlns:sodipodi="http://sodipodi.sourceforge.net/DTD/sodipodi-0.dtd"
   xmlns:inkscape="http://www.inkscape.org/namespaces/inkscape"
   width="67.859161mm"
   height="63.621758mm"
   viewBox="0 0 240.44585 225.43142"
   id="svg6026"
   version="1.1"
   inkscape:version="0.91 r13725"
   sodipodi:docname="dragon_ampersand.svg">
  <defs
     id="defs6028" />
  <sodipodi:namedview
     id="base"
     pagecolor="#ffffff"
     bordercolor="#666666"
     borderopacity="1.0"
     inkscape:pageopacity="0.0"
     inkscape:pageshadow="2"
     inkscape:zoom="0.35"
     inkscape:cx="313.79435"
     inkscape:cy="612.71571"
     inkscape:document-units="px"
     inkscape:current-layer="layer1"
     showgrid="false"
     fit-margin-top="0"
     fit-margin-left="0"
     fit-margin-right="0"
     fit-margin-bottom="0"
     inkscape:window-width="2484"
     inkscape:window-height="1411"
     inkscape:window-x="76"
     inkscape:window-y="0"
     inkscape:window-maximized="1" />
  <metadata
     id="metadata6031">
    <rdf:RDF>
      <cc:Work
         rdf:about="">
        <dc:format>image/svg+xml</dc:format>
        <dc:type
           rdf:resource="http://purl.org/dc/dcmitype/StillImage" />
        <dc:title></dc:title>
      </cc:Work>
    </rdf:RDF>
  </metadata>
  <g
     inkscape:label="Layer 1"
     inkscape:groupmode="layer"
     id="layer1"
     transform="translate(371.65149,-919.64649)">
    <path
       style="display:inline;fill:#ffffff;fill-opacity:1;fill-rule:evenodd;stroke:#000000;stroke-width:1px;stroke-linecap:butt;stroke-linejoin:miter;stroke-opacity:1"
       d="m -295.24522,920.17927 c -18.2816,0.53355 -38.87049,9.30496 -45.04458,27.90235 -4.02516,11.85141 -5.0133,26.08164 1.42934,37.2578 2.34826,2.26702 0.78839,2.11127 -1.56445,1.92383 -3.87347,-0.054 -7.58237,1.2281 -11.33789,1.98242 6.24905,2.03522 12.642,5.48307 15.08593,11.99023 -9.33955,7.2786 -19.35886,13.4389 -28.625,20.7324 6.23519,0.6475 14.02917,-3.7816 19.42774,0.7051 -8.84517,4.92 -15.43982,14.5944 -19.96875,23.9023 -3.11255,6.3549 -6.06208,13.1364 -5.13477,20.4141 1.13781,-1.3269 5.30591,-8.6176 5.78387,-6.404 -5.35849,21.0958 -2.60237,45.1925 10.32941,63.0876 2.43142,3.3247 5.82057,5.7058 9.03516,8.2051 -0.23698,-4.2618 -4.82866,-8.6953 -3.08594,-12.9297 2.88824,-3.8317 5.20641,2.9849 8.1026,4.3717 16.01627,14.5714 40.27298,22.3158 60.83159,12.9754 17.68586,-7.4988 32.06698,-21.7906 39.9664,-39.2822 1.52031,-3.5027 5.03269,2.6818 5.03105,5.2183 1.12312,10.9539 -1.56688,25.1688 8.81446,32.6445 3.85634,2.8896 8.71323,3.745 13.20117,5.1621 -4.59548,-5.8922 -10.59716,-13.5138 -6.83984,-21.3789 4.08817,18.2279 24.68167,29.9238 42.49023,24.6387 9.82898,-2.4122 17.71009,-9.2801 24.35742,-16.5879 -7.63509,1.3339 -16.07033,3.1503 -23.4668,0.9063 14.99424,0.8612 29.05443,-11.8052 31.66797,-26.2735 2.2406,-12.8122 -8.55487,-23.29 -19.55468,-27.6523 -6.86362,-2.9986 -14.14858,-5.0798 -21.60743,-5.8633 5.73941,5.9457 16.87337,11.4719 14.32618,21.4316 -2.58869,6.5072 -11.85214,9.465 -17.26368,8.8829 6.4554,-10.2288 4.86136,-27.4656 -7.7853,-32.1301 -2.20521,0.2723 -0.51884,6.7776 -2.11118,9.3957 -0.91493,5.8307 -7.85587,7.2842 -12.39063,4.4277 -6.33867,-2.6931 -11.85042,-6.9433 -17.18359,-11.2246 6.57309,-15.994 14.7938,-32.2169 28.2168,-43.4121 7.17323,-5.3947 16.90219,-4.742 24.11523,0.2187 4.35164,2.8589 8.50722,5.5969 4.95508,-1.6777 1.24103,2.5226 5.08899,-2.4007 7.87305,-3.25 9.61103,-4.6266 20.45921,-1.1339 30.34375,0.4336 -13.64861,-12.0514 -31.10612,-24.19429 -50.33203,-20.7598 -1.79854,0.3201 -3.67741,0.8307 -5.3418,1.3926 3.18898,-1.74402 6.30634,-3.61551 9.45703,-5.42771 -9.80016,-1.12441 -19.54227,2.03824 -27.16211,8.17191 3.30403,-4.78466 8.36624,-10.55135 -0.55664,-5.68949 -11.80201,5.61719 -19.20756,17.42549 -25.93555,28.14449 -3.08184,4.3366 -3.69196,9.7653 -4.86132,14.5684 -3.32352,3.8108 -5.86278,9.2506 -9.17969,12.375 -4.83996,-1.2171 -12.0481,2.3413 -14.30469,-4.0664 -0.6408,-1.4867 -3.74575,-9.0131 -0.68164,-5.4277 3.10065,2.1127 0.47475,10.3997 5.39844,6.8906 9.35979,-4.8289 13.9401,-16.1339 14.45898,-26.1817 -0.35361,-6.8767 -2.27383,-5.3604 -4.88281,-0.1113 -1.2955,1.9399 -3.55814,3.8 -4.37305,0.6328 -2.13002,-1.6686 -2.40925,-3.578 -2.07031,-6.1601 -0.3753,-5.8548 -1.52716,-12.3166 -7.32573,-15.3373 -3.21472,-1.667 -3.06158,-3.5965 -0.74263,-5.85023 7.81924,-13.91927 15.61106,-30.3767 11.19141,-46.66602 -5.34059,-19.46249 -25.49976,-32.0022 -45.17578,-31.24218 z m 0.625,24.65234 c 14.246,1.00763 20.45524,21.27876 10.41601,30.9082 -1.88902,3.22661 -3.33233,-3.29436 -4.46875,-4.92773 -1.84625,-3.78013 -0.4071,-7.95129 -0.50976,-11.92773 -6.90435,4.98699 -6.95955,14.09199 -5.51758,21.60546 -5.77928,-6.98063 -9.77408,-15.54969 -9.62305,-24.77539 -1.82321,2.42468 -4.33835,7.912 -5.04102,9.38282 -1.75939,-9.5504 3.43993,-21.72328 14.74415,-20.26563 z m 16.33789,64.47849 c 2.60297,2.5534 6.99725,6.0165 8.31835,8.4356 -3.19571,2.8855 -5.42872,-3.8602 -8.25313,-5.0592 -1.40087,0.044 -0.64157,-4.0855 -0.0652,-3.3764 z m -6.88086,18.668 c 3.73564,-0.2248 -0.39158,4.9724 0.33789,7.7187 0.25557,1.6734 0.85847,6.3065 -1.22657,3.6563 -1.11897,-3.667 -0.34503,-7.615 0.51563,-11.252 -1.98654,-0.1738 0.33264,-0.086 0.37305,-0.123 z m 3.92968,0.1055 c 2.33946,0.8162 9.76407,-0.9892 7.23154,3.7149 -0.16243,5.3877 -5.55459,5.1584 -6.0831,0.1796 0.0457,-0.9005 -2.26518,-3.8035 -1.14844,-3.8945 z m 6.94727,10.3125 c 3.70969,1.29 7.68526,2.1579 10.98437,4.3847 -4.87225,-0.045 -10.16098,-1.2233 -13.40625,-5.1601 z m -26.59375,0 c 6.22139,5.266 1.36398,13.9925 -3.38281,18.4023 2.86714,0.9928 6.22076,1.5919 8.96289,-0.088 -2.62435,3.5366 -5.87122,6.5447 -8.85352,9.7676 7.04114,-0.6559 14.56087,-2.3917 19.50977,-7.7481 4.45356,-0.4874 8.01552,-3.7377 9.66015,-7.8027 5.62106,2.2594 2.13906,9.4939 4.87696,13.8047 2.15426,4.3942 7.54437,6.9675 9.69531,10.7402 -8.69671,12.8513 -21.10107,26.698 -37.72852,27.4004 -11.98882,0.1936 -20.08093,-11.9029 -20.22851,-22.6914 -1.4549,-15.5385 5.36395,-31.6029 17.21289,-42.0098 l 0.27539,0.2246 z m 18.45703,5.2695 c 1.75328,2.7566 4.20665,4.9999 6.86719,6.8633 -4.15628,1.257 -9.03622,-1.2614 -7.48047,-6.086 0.15207,-0.3324 0.0248,-2.5576 0.61328,-0.7773 z"
       id="path4655-1-5-4"
       inkscape:connector-curvature="0"
       sodipodi:nodetypes="cccccccccccccccccccccccccccccccccccccccccccccccccccccccccccccccccccccccccccccccccccccccccccccccccccc" />
    <path
       style="display:inline;fill:#000000;fill-opacity:1;fill-rule:evenodd;stroke:#000000;stroke-width:1px;stroke-linecap:butt;stroke-linejoin:miter;stroke-opacity:1"
       d="m -295.21983,922.17927 c -13.60983,0.34823 -29.088,5.98048 -37.06446,15.68359 -9.72368,11.82855 -11.19046,30.80669 -6.80078,42.78711 0.86498,2.36073 2.54342,4.73054 4.64258,7.02148 0.86977,0.13485 1.73752,0.3047 2.59961,0.51563 -2.65205,-6.60897 -1.56054,-13.87987 1.08398,-20.30273 1.08689,11.44334 12.68741,16.62478 20.76563,22.08593 -1.51874,-6.43432 -1.6222,-13.37682 -0.28711,-19.95898 -3.94267,-12.48194 1.10805,-24.63443 9.8125,-26.66211 1.71622,-0.39979 3.37256,-0.57828 4.95508,-0.55664 11.07765,0.15146 18.57858,10.10271 18.30273,22.49804 -0.0889,3.99664 -2.78382,8.60173 -6.85937,13.4668 5.27473,7.81029 12.33862,14.44464 19.1875,20.97461 1.83961,-2.44206 3.39975,-4.85909 4.5664,-7.23437 8.72589,-17.7658 12.53439,-30.68163 7.02149,-44.32227 -5.5129,-13.64064 -18.30526,-22.98273 -33.35157,-25.45117 -1.88078,-0.30856 -3.85126,-0.48787 -5.88086,-0.54297 -0.88794,-0.0241 -1.78603,-0.0252 -2.69335,-0.002 z m -10.47071,39.83203 c -3.36006,5.22675 -4.85236,23.33255 -1.95898,28.27929 1.40002,0.56003 12.3187,8.21437 10.63867,13.81451 -2.33337,-8.49352 -30.89332,-19.22694 -33.69336,-29.40044 -1.96004,6.06676 0.55938,12.60059 2.05273,16.33398 0,0 -9.51983,-2.9882 -16.61328,-1.21484 8.3068,3.26672 11.01368,12.1348 11.01368,12.1348 -8.27569,5.8489 -11.64247,9.0026 -24.82618,17.5468 22.85125,-4.24 14.90039,9.2052 13.34571,23.1465 8.0268,-8.5868 22.42091,-17.9795 33.62109,-21.7129 -6.45512,-0.3457 -11.53691,0.5044 -15.9707,0.9434 6.9068,-6.6268 20.61819,-10.8704 34.89844,-11.1504 -6.72011,1.4934 -19.82902,2.7007 -26.17579,8.3008 0,0 13.94837,-1.8611 18.14844,0.3789 -9.52016,2.3333 -14.74622,11.853 -15.21289,14.373 17.54696,-3.1734 26.78695,9.1463 15.77344,21.8399 3.92006,1.12 7.9323,-3.2656 8.95898,-4.5723 0.0933,1.4934 1.21367,2.8924 2.70703,3.7324 0,0 -1.58754,0.8406 -3.26757,0.5606 -0.56001,2.3333 -6.34571,8.2129 -6.34571,8.2129 5.64676,-0.7934 9.70681,-3.1718 12.72852,-6.6602 4.60841,-0.595 6.59246,-2.4868 7.61914,-4.3535 -8.40014,0.28 -7.00142,-7.3731 -6.44141,-10.4531 -4.76008,1.12 -4.19897,-8.587 -3.26562,-12.3203 l -10.26758,-1.4922 c 7.00012,-3.9201 24.64098,-1.8666 26.04102,-0.8399 1.21334,1.4 0.37304,3.9199 0.37304,3.9199 1.8667,-1.12 3.08008,0 3.08008,0 0,0 -2.6139,4.0128 -4.94727,5.1329 9.98683,3.1734 14.93467,4.5744 16.05469,12.9746 9.98683,-3.8268 14.74697,-21.3745 13.62696,-25.2012 -2.05337,3.4534 -4.20119,5.1338 -7.28126,5.7871 0,-2.24 -3.36003,-6.1597 -4.38671,-6.0664 1.49336,-3.2667 -0.65342,-13.2538 -1.77344,-14.5605 -19.88033,-17.73366 -36.58604,-35.74705 -33.97266,-45.17387 -4.0134,5.97343 -1.0904,20.09796 0.7461,21.7461 1.8365,1.64814 20.2542,19.03977 19.88086,20.06637 0,0 -33.41485,-24.54571 -34.90821,-44.0527 z m 7.09375,26.50586 13.34766,13.06834 -2.24024,0.8399 -11.10742,-13.90824 z m 111.92188,9.72656 c -11.0637,0 -24.36169,11.86738 -27.11328,16.10938 0,0 3.84019,-8.5418 7.73828,-13.873 -10.89173,3.8407 -27.11522,28.319 -28.26172,34.9687 12.47226,-18.2172 50.71421,-39.19321 64.7207,-13.3008 6.59236,-4.586 11.86543,-7.9681 29.52149,-4.5859 -24.82168,-20.63698 -43.16442,-17.82832 -54.91602,-10.7774 1.6051,-5.6178 5.44431,-6.82123 8.31055,-8.54098 z m -94.28125,7.54098 c 4.66674,0.28 11.85237,11.5741 16.42578,12.4141 -5.22675,0.56 -7.0918,3.4531 -7.0918,3.4531 l -9.80078,-9.2402 c 0.84001,-2.1467 1.02681,-4.8536 0.4668,-6.627 z m 89.35742,8.3028 c -2.09066,0 -4.24445,0.1956 -6.40234,0.5722 -11.50875,2.0086 -17.8641,7.6457 -31.37696,20.4043 -4.97104,4.6936 -10.05442,11.9368 -15.23828,19.877 5.09657,3.7585 9.82468,8.1051 14.68555,12.2656 6.94002,-18.473 21.12219,-39.657 29.95508,-44.4297 9.06011,-4.8954 14.70032,-5.2648 27.20703,2.1953 -1.89562,-7.3702 -9.77057,-10.8984 -18.83008,-10.8847 z m -119.4375,8.2754 c -0.11623,0.024 -0.43511,0.1953 -1.03906,0.5683 -10.154,4.427 -19.89752,9.8346 -28.37696,17.2617 -4.461,3.9074 -8.17602,12.7819 -7.74804,5.7071 -0.64174,1.1759 -1.19647,2.3214 -1.63672,3.4257 -5.89804,15.5354 -10.87752,39.076 -2.63281,55.9512 8.24471,16.8752 28.79165,30.3608 46.29687,32.6934 17.50522,2.3325 32.408,-5.0804 46.29688,-16.8946 7.81729,-6.6495 14.01941,-16.4732 19.14648,-27.1425 -5.77904,-5.9514 -11.98483,-11.5729 -18.04492,-17.3086 -4.40528,6.3582 -8.8698,12.0896 -13.38867,16.1465 -14.92703,13.4009 -30.38207,16.3297 -41.03125,5.4863 -10.64918,-10.8434 -9.54016,-36.0736 2.19531,-52.002 2.1574,-2.9282 4.94693,-5.9982 8.10547,-9.166 -4.61848,-2.4713 -11.33978,-2.0573 -16.14649,-0.8379 0.48994,-3.8776 2.34147,-7.4111 4.79102,-10.4004 0.41421,-0.9408 3.71654,-3.5936 3.21289,-3.4882 z m -34.44336,2.6484 c -12.69354,5.9734 -23.11844,30.8005 -23.39844,35.5605 0.74668,-1.5866 4.66704,-4.1058 7.09375,-4.1992 -9.33349,26.2271 -1.12115,57.9614 12.03907,69.9082 -2.89338,-6.5334 -1.86521,-7.9869 1.21484,-10.3203 -20.44034,-23.147 -6.25361,-66.6409 0.83984,-73.7344 -0.0931,-2.3281 2.95593,-14.5453 2.21094,-17.2148 z m 63.2168,6.9062 c -3.08005,10.5469 7.33576,16.7423 10.73242,18.8555 3.39665,2.1133 0.264,11.0459 4.85351,15.3984 4.58951,4.3526 22.57375,21.7734 30.89454,29.5879 8.32079,7.8146 -5.13267,34.44 17.73437,40.6934 -7.28012,-9.7068 -5.60146,-16.5203 -0.74805,-23.707 2.42671,27.4404 36.21524,41.722 60.01563,16.9882 -8.0268,1.4934 -23.80145,2.4256 -24.82813,-7.2812 19.69366,16.8936 70.46728,-36.1201 3.82618,-51.707 23.05371,17.0802 4.29333,31.7341 -13.62696,29.4941 7.56012,-5.6001 9.8015,-25.8534 -2.33203,-31.5469 -1.68003,37.614 -44.52505,-9.3974 -50.40234,-12.6015 -5.87729,-3.2042 -14.49134,5.9557 -18.68946,-11.3965 -7.93346,-0.3734 -13.88296,-3.5372 -17.42968,-12.7774 z m 29.43945,30.2325 c 0,0 31.30788,19.8174 38.82422,24.1894 7.51634,4.372 17.9819,2.9202 21.50781,-8.5937 1.05825,12.7214 -14.8576,15.8128 -22.20898,10.7109 -7.35139,-5.1019 -38.12305,-26.3066 -38.12305,-26.3066 z m 9.63672,14.1328 c 0,0 30.11244,21.0517 47.98437,30.2969 17.87193,9.2451 38.51171,-5.384 31.71875,-22.7422 11.83488,15.1372 -11.90912,36.2466 -33.02734,25.2968 -4.1995,-2.1774 -8.57006,-4.7948 -12.88477,-7.58 0.93756,4.9573 4.20618,14.8961 5.79297,17.6445 3.46722,6.0054 15.48444,18.7809 30.99219,14.0449 -10.7213,7.8684 -27.81648,-2.15 -33.09375,-12.0898 -4.74453,-8.9364 -4.44216,-18.3395 -8.13672,-22.541 -15.63093,-10.5882 -29.3457,-22.3301 -29.3457,-22.3301 z"
       id="path4655-1-5"
       inkscape:connector-curvature="0" />
  </g>
</svg>
